<svg width="1280" height="720" xmlns="http://www.w3.org/2000/svg" xmlns:xlink="http://www.w3.org/1999/xlink" overflow="hidden"><defs><filter id="fx0" x="-10%" y="-10%" width="120%" height="120%" filterUnits="userSpaceOnUse" primitiveUnits="userSpaceOnUse"><feComponentTransfer color-interpolation-filters="sRGB"><feFuncR type="discrete" tableValues="1 1"/><feFuncG type="discrete" tableValues="0 0"/><feFuncB type="discrete" tableValues="0 0"/><feFuncA type="linear" slope="1" intercept="0"/></feComponentTransfer><feGaussianBlur stdDeviation="1.77778 1.77778"/></filter><clipPath id="clip1"><rect x="27" y="13" width="126" height="157"/></clipPath></defs><g><rect x="0" y="0" width="1280" height="720" fill="#FFFFFF"/><g clip-path="url(#clip1)" filter="url(#fx0)" transform="translate(508 257)"><g><g><g><g><path d="M47.25 150.833 47.25 31.8333 91 31.8333 91 68.5833 134.75 68.5833 134.75 150.833 47.25 150.833ZM101.5 36.2083 123.375 58.0833 101.5 58.0833 101.5 36.2083ZM101.5 21.3333 36.75 21.3333 36.75 161.333 145.25 161.333 145.25 59.8333 101.5 21.3333Z"/><path d="M57.75 86.0833 124.25 86.0833 124.25 93.0833 57.75 93.0833Z"/><path d="M57.75 72.0833 80.5 72.0833 80.5 79.0833 57.75 79.0833Z"/><path d="M57.75 100.083 124.25 100.083 124.25 107.083 57.75 107.083Z"/><path d="M57.75 114.083 124.25 114.083 124.25 121.083 57.75 121.083Z"/><path d="M57.75 128.083 124.25 128.083 124.25 135.083 57.75 135.083Z"/></g></g></g></g></g><g><g><g><path d="M555.25 402.5 555.25 283.5 599 283.5 599 320.25 642.75 320.25 642.75 402.5 555.25 402.5ZM609.5 287.875 631.375 309.75 609.5 309.75 609.5 287.875ZM609.5 273 544.75 273 544.75 413 653.25 413 653.25 311.5 609.5 273Z"/><path d="M565.75 337.75 632.25 337.75 632.25 344.75 565.75 344.75Z"/><path d="M565.75 323.75 588.5 323.75 588.5 330.75 565.75 330.75Z"/><path d="M565.75 351.75 632.25 351.75 632.25 358.75 565.75 358.75Z"/><path d="M565.75 365.75 632.25 365.75 632.25 372.75 565.75 372.75Z"/><path d="M565.75 379.75 632.25 379.75 632.25 386.75 565.75 386.75Z"/></g></g></g></g></svg>